<svg xmlns="http://www.w3.org/2000/svg" viewBox="0 0 64.99 33.13"><defs><style>.cls-1{fill:#6b6b6b;}.cls-2{fill:#fff;}</style></defs><title>Rupie</title><g id="Layer_2" data-name="Layer 2"><g id="Layer_1-2" data-name="Layer 1"><path class="cls-1" d="M7.15,0a.53.53,0,0,1,.21.16l4.43,4.41a.49.49,0,0,0,.38.16l4,0a.44.44,0,0,1,.36.15l6.87,6.89c.18.18.18.14,0,.31L16.6,19a.49.49,0,0,1-.38.16H14.6c-.21,0-.21,0-.21.22,0,2.15,0,4.3,0,6.44a.57.57,0,0,1-.18.43L7.36,33c-.19.19-.14.18-.33,0L.16,26.16A.49.49,0,0,1,0,25.78V7.39A.49.49,0,0,1,.16,7L7,.15Z"/><path d="M34.37,17.44l2.31,3.8a.18.18,0,0,1-.15,0c-.66,0-1.32,0-2,0a.25.25,0,0,1-.26-.15l-1.9-3.27a.28.28,0,0,0-.3-.17H30.88c-.16,0-.17,0-.17.17v3.19c0,.26,0,.23-.23.23H28.84c-.19,0-.18,0-.18-.18V11.69c0-.08,0-.1.11-.1h0c1.43,0,2.87,0,4.3,0a3.55,3.55,0,0,1,1.68.42,2.62,2.62,0,0,1,1.39,2,3.57,3.57,0,0,1-.08,1.59,2.59,2.59,0,0,1-1.55,1.72Z"/><path d="M48.3,20.74a.41.41,0,0,0,0,.21v2.39c0,.22,0,.22-.22.29l-1.45.51a.59.59,0,0,1-.2.05.47.47,0,0,1,0-.2V13.86c0-.15,0-.16.16-.16H48c.14,0,.15,0,.15.15v.53a.44.44,0,0,0,.18-.14,2.68,2.68,0,0,1,2.9-.5,2.54,2.54,0,0,1,1.15,1.14,4.66,4.66,0,0,1,.53,1.72A6.64,6.64,0,0,1,52.78,19a4.2,4.2,0,0,1-.52,1.26,2.45,2.45,0,0,1-2.61,1.13,2.41,2.41,0,0,1-1.18-.54Z"/><path d="M42.49,20.65l-.3.26a2.73,2.73,0,0,1-1.6.57,3.23,3.23,0,0,1-1-.08A2.15,2.15,0,0,1,38,19.75a3.71,3.71,0,0,1-.1-.88v-5c0-.16,0-.17.17-.17h1.54c.18,0,.18,0,.18.19v4.4a2.36,2.36,0,0,0,0,.37,1,1,0,0,0,.79.95,1.72,1.72,0,0,0,.9,0,1.35,1.35,0,0,0,.87-.81.55.55,0,0,0,0-.22V14c0-.29,0-.24.24-.25h1.46c.23,0,.21,0,.21.21v7.24c0,.16,0,.16-.16.16H42.66c-.17,0-.17,0-.17-.19Z"/><path d="M60.27,18.12a1.75,1.75,0,0,0,1,1.54A1.51,1.51,0,0,0,63,19.28l.18-.19c.06,0,.09.05.13.08.35.3.69.61,1,.9.07.06.09.1,0,.18A3.36,3.36,0,0,1,60.1,21a3.2,3.2,0,0,1-1.39-1.8,5.57,5.57,0,0,1-.26-2.11,4.63,4.63,0,0,1,.43-1.83,2.9,2.9,0,0,1,2.45-1.72,3.18,3.18,0,0,1,2,.38,3.05,3.05,0,0,1,1.4,1.77,5.29,5.29,0,0,1,.25,2.2c0,.19,0,.19-.2.19H60.5A.89.89,0,0,0,60.27,18.12Z"/><path d="M56.65,17.51v3.64c0,.16,0,.16-.16.16H55c-.19,0-.19,0-.19-.19V13.9c0-.2,0-.2.18-.2h1.54c.17,0,.17,0,.17.17Z"/><path d="M54.67,11.72a1,1,0,1,1,2.07,0,1,1,0,0,1-1,1A1,1,0,0,1,54.67,11.72Z"/><path class="cls-2" d="M7.2,5.76,7.44,6l2.62,2.59a.49.49,0,0,0,.38.16h4.05a.41.41,0,0,1,.34.14l2.87,2.87.07.07c.07.06.08.11,0,.17l-.06.06-2.86,2.9a.44.44,0,0,1-.35.13h-4c-.09,0-.14,0-.13.13v8.86a.48.48,0,0,1-.15.38L7.35,27.27l0,0c-.14.14-.12.13-.25,0L4.12,24.35A.36.36,0,0,1,4,24.06v-15a.36.36,0,0,1,.09-.26q1.53-1.49,3-3Z"/><path class="cls-2" d="M30.71,14.7c0-.38,0-.75,0-1.13,0-.09,0-.14.12-.14.75,0,1.49,0,2.24,0a1.47,1.47,0,0,1,.46.11,1.11,1.11,0,0,1,.74,1.16,1.16,1.16,0,0,1-1.08,1.21,4.55,4.55,0,0,1-.53,0H30.87c-.15,0-.16,0-.16-.16Z"/><path class="cls-2" d="M48.25,17.49V16.26a.4.4,0,0,1,0-.24,1.56,1.56,0,0,1,1.85-.64,1.22,1.22,0,0,1,.73.68,2.58,2.58,0,0,1,.23.81,4.51,4.51,0,0,1-.1,1.79,1.79,1.79,0,0,1-.13.32,1.29,1.29,0,0,1-1.49.76A1.64,1.64,0,0,1,48.3,19a.34.34,0,0,1,0-.22Z"/><path class="cls-2" d="M60.27,16.7a2.06,2.06,0,0,1,.48-1.06,1.16,1.16,0,0,1,.76-.38,1.39,1.39,0,0,1,1.54.92,3,3,0,0,1,.13.39.28.28,0,0,1,0,.13Z"/></g></g></svg>