<?xml version="1.0" encoding="UTF-8"?>
<svg width="81px" height="48px" viewBox="0 0 81 48" version="1.1" xmlns="http://www.w3.org/2000/svg" xmlns:xlink="http://www.w3.org/1999/xlink">
    <!-- Generator: Sketch 50.2 (55047) - http://www.bohemiancoding.com/sketch -->
    <title>rupie</title>
    <desc>Created with Sketch.</desc>
    <defs></defs>
    <g id="rupie" stroke="none" stroke-width="1" fill="none" fill-rule="evenodd">
        <g id="Rupie" transform="translate(7.000000, 7.000000)" fill-rule="nonzero">
            <path d="M8.15,0 C8.23237544,0.0347659708 8.30461666,0.0898068982 8.36,0.16 L12.79,4.57 C12.8869719,4.67662316 13.0259668,4.73514734 13.17,4.73 L17.17,4.73 C17.3068158,4.7211832 17.4399227,4.77664442 17.53,4.88 L24.4,11.77 C24.58,11.95 24.58,11.91 24.4,12.08 L17.6,19 C17.5030281,19.1066232 17.3640332,19.1651473 17.22,19.16 L15.6,19.16 C15.39,19.16 15.39,19.16 15.39,19.38 C15.39,21.53 15.39,23.68 15.39,25.82 C15.3940318,25.9824375 15.3285465,26.1388744 15.21,26.25 L8.36,33 C8.17,33.19 8.22,33.18 8.03,33 L1.16,26.16 C1.05337684,26.0630281 0.994852662,25.9240332 1,25.78 L1,7.39 C0.991830719,7.24253008 1.05061531,7.09924265 1.16,7 L8,0.15 L8.15,0 Z" id="Shape" fill="#6B6B6B"></path>
            <path d="M35.37,17.44 L37.68,21.24 C37.6323818,21.2618258 37.5776182,21.2618258 37.53,21.24 C36.87,21.24 36.21,21.24 35.53,21.24 C35.4196199,21.2533812 35.3136672,21.1922546 35.27,21.09 L33.37,17.82 C33.3208911,17.7011764 33.1971704,17.631068 33.07,17.65 L31.88,17.65 C31.72,17.65 31.71,17.65 31.71,17.82 L31.71,21.01 C31.71,21.27 31.71,21.24 31.48,21.24 L29.84,21.24 C29.65,21.24 29.66,21.24 29.66,21.06 L29.66,11.69 C29.66,11.61 29.66,11.59 29.77,11.59 C31.2,11.59 32.64,11.59 34.07,11.59 C34.6560841,11.5891744 35.2332555,11.7334672 35.75,12.01 C36.513878,12.4076997 37.0335306,13.1554013 37.14,14.01 C37.2333543,14.5392653 37.2060077,15.0827781 37.06,15.6 C36.8426266,16.3852148 36.2684412,17.0223754 35.51,17.32 L35.37,17.44 Z" id="Shape" fill="#000000"></path>
            <path d="M49.3,20.74 C49.2817692,20.808813 49.2817692,20.881187 49.3,20.95 L49.3,23.34 C49.3,23.56 49.3,23.56 49.08,23.63 L47.63,24.14 C47.5667843,24.168275 47.4990844,24.1851999 47.43,24.19 C47.4156513,24.1241054 47.4156513,24.0558946 47.43,23.99 L47.43,13.86 C47.43,13.71 47.43,13.7 47.59,13.7 L49,13.7 C49.14,13.7 49.15,13.7 49.15,13.85 L49.15,14.38 C49.2212604,14.3499622 49.2833454,14.3016738 49.33,14.24 C50.1105184,13.5100449 51.2501039,13.3135646 52.23,13.74 C52.7274394,13.9843606 53.1313043,14.3847137 53.38,14.88 C53.6667577,15.4134454 53.8467814,15.9976733 53.91,16.6 C54.0130233,17.4012472 53.9689683,18.214569 53.78,19 C53.6764319,19.4455129 53.5007859,19.8711167 53.26,20.26 C52.7200487,21.1547747 51.6719628,21.6085437 50.65,21.39 C50.214692,21.3212748 49.806562,21.1345034 49.47,20.85 L49.3,20.74 Z" id="Shape" fill="#000000"></path>
            <path d="M43.49,20.65 L43.19,20.91 C42.7308432,21.2652967 42.1703746,21.4649637 41.59,21.48 C41.2545345,21.5055764 40.9171326,21.4785843 40.59,21.4 C39.7866497,21.2017843 39.1683362,20.5601382 39,19.75 C38.9316479,19.461712 38.8980754,19.166274 38.9,18.87 L38.9,13.87 C38.9,13.71 38.9,13.7 39.07,13.7 L40.61,13.7 C40.79,13.7 40.79,13.7 40.79,13.89 L40.79,18.29 C40.780317,18.4131433 40.780317,18.5368567 40.79,18.66 C40.8028116,19.1209317 41.1291342,19.513345 41.58,19.61 C41.8746827,19.6898795 42.1853173,19.6898795 42.48,19.61 C42.8796608,19.4890746 43.2008719,19.190016 43.35,18.8 C43.3648163,18.727415 43.3648163,18.652585 43.35,18.58 L43.35,14 C43.35,13.71 43.35,13.76 43.59,13.75 L45.05,13.75 C45.28,13.75 45.26,13.75 45.26,13.96 L45.26,21.2 C45.26,21.36 45.26,21.36 45.1,21.36 L43.66,21.36 C43.49,21.36 43.49,21.36 43.49,21.17 L43.49,20.65 Z" id="Shape" fill="#000000"></path>
            <path d="M61.27,18.12 C61.2856314,18.7810296 61.6725,19.3768072 62.27,19.66 C62.8682051,19.920366 63.5659777,19.767098 64,19.28 L64.18,19.09 C64.24,19.09 64.27,19.14 64.31,19.17 C64.66,19.47 65,19.78 65.31,20.07 C65.38,20.13 65.4,20.17 65.31,20.25 C64.2673867,21.4759951 62.5018501,21.7905207 61.1,21 C60.4318957,20.5904387 59.9373024,19.9499583 59.71,19.2 C59.4886681,18.5198827 59.4003938,17.803503 59.45,17.09 C59.4666885,16.457014 59.6130378,15.8341786 59.88,15.26 C60.3147742,14.2769063 61.2576736,13.6149524 62.33,13.54 C63.0202954,13.444085 63.7229852,13.5775961 64.33,13.92 C65.0058061,14.3093022 65.5068013,14.9427033 65.73,15.69 C65.967589,16.397488 66.0527883,17.1472419 65.98,17.89 C65.98,18.08 65.98,18.08 65.78,18.08 L61.5,18.08 C61.4219096,18.0831768 61.3445778,18.0966258 61.27,18.12 Z" id="Shape" fill="#000000"></path>
            <path d="M57.65,17.51 L57.65,21.15 C57.65,21.31 57.65,21.31 57.49,21.31 L56,21.31 C55.81,21.31 55.81,21.31 55.81,21.12 L55.81,13.9 C55.81,13.7 55.81,13.7 55.99,13.7 L57.53,13.7 C57.7,13.7 57.7,13.7 57.7,13.87 L57.65,17.51 Z" id="Shape" fill="#000000"></path>
            <path d="M55.67,11.72 C55.67,11.1483853 56.1333853,10.685 56.705,10.685 C57.2766147,10.685 57.74,11.1483853 57.74,11.72 C57.74,12.2722847 57.2922847,12.72 56.74,12.72 C56.4628782,12.7394471 56.1901557,12.6427396 55.9871923,12.4530542 C55.784229,12.2633688 55.6693185,11.9978025 55.67,11.72 Z" id="Shape" fill="#000000"></path>
            <path d="M8.2,5.76 L8.44,6 L11.06,8.59 C11.1569719,8.69662316 11.2959668,8.75514734 11.44,8.75 L15.49,8.75 C15.6190786,8.74038169 15.7451192,8.7922808 15.83,8.89 L18.7,11.76 L18.77,11.83 C18.84,11.89 18.85,11.94 18.77,12 L18.71,12.06 L15.85,14.96 C15.7584139,15.0531379 15.6301797,15.1007677 15.5,15.09 L11.5,15.09 C11.41,15.09 11.36,15.09 11.37,15.22 L11.37,24.08 C11.3790892,24.2226849 11.3240986,24.3619945 11.22,24.46 L8.35,27.27 C8.21,27.41 8.23,27.4 8.1,27.27 L5.12,24.35 C5.03775065,24.276775 4.99353993,24.1699324 5,24.06 L5,9.06 C4.99439215,8.96483555 5.02675874,8.87133206 5.09,8.8 C6.11,7.80666667 7.11,6.80666667 8.09,5.8 L8.2,5.76 Z" id="Shape" fill="#FFFFFF"></path>
            <path d="M31.71,14.7 C31.71,14.32 31.71,13.95 31.71,13.57 C31.71,13.48 31.71,13.43 31.83,13.43 C32.58,13.43 33.32,13.43 34.07,13.43 C34.2282656,13.4415973 34.3836092,13.4787447 34.53,13.54 C35.0154733,13.7087183 35.3216333,14.1886447 35.27,14.7 C35.2986313,15.3298051 34.8189991,15.8671708 34.19,15.91 C34.0134834,15.9202981 33.8365166,15.9202981 33.66,15.91 L31.87,15.91 C31.72,15.91 31.71,15.91 31.71,15.75 L31.71,14.7 Z" id="Shape" fill="#FFFFFF"></path>
            <path d="M49.25,17.49 L49.25,16.26 C49.2254342,16.1818859 49.2254342,16.0981141 49.25,16.02 C49.6394264,15.3981537 50.4095601,15.1317291 51.1,15.38 C51.4291258,15.4922686 51.6947005,15.7396532 51.83,16.06 C51.9505059,16.3155832 52.0282072,16.5892267 52.06,16.87 C52.1467894,17.4673466 52.1127843,18.0760374 51.96,18.66 C51.9270832,18.7706079 51.8835473,18.8777733 51.83,18.98 C51.5871066,19.5646275 50.955869,19.886601 50.34,19.74 C49.9076289,19.6438931 49.5325153,19.3769853 49.3,19 C49.2756189,18.9286932 49.2756189,18.8513068 49.3,18.78 L49.25,17.49 Z" id="Shape" fill="#FFFFFF"></path>
            <path d="M61.27,16.7 C61.3248095,16.3078807 61.4914588,15.9398634 61.75,15.64 C61.9461534,15.4217689 62.2177231,15.2859841 62.51,15.26 C63.1790056,15.1500568 63.8297289,15.5388006 64.05,16.18 C64.1021999,16.3068746 64.1456352,16.4371804 64.18,16.57 C64.1901988,16.6127332 64.1901988,16.6572668 64.18,16.7 L61.27,16.7 Z" id="Shape" fill="#FFFFFF"></path>
        </g>
    </g>
</svg>