<?xml version="1.0" encoding="UTF-8"?>
<svg width="1310px" height="800px" viewBox="0 0 1310 800" version="1.1" xmlns="http://www.w3.org/2000/svg" xmlns:xlink="http://www.w3.org/1999/xlink">
    <!-- Generator: Sketch 49.2 (51160) - http://www.bohemiancoding.com/sketch -->
    <title>Terminal</title>
    <desc>Created with Sketch.</desc>
    <defs>
        <filter x="-8.7%" y="-15.3%" width="117.3%" height="130.6%" filterUnits="objectBoundingBox" id="filter-1">
            <feOffset dx="0" dy="0" in="SourceAlpha" result="shadowOffsetOuter1"></feOffset>
            <feGaussianBlur stdDeviation="34" in="shadowOffsetOuter1" result="shadowBlurOuter1"></feGaussianBlur>
            <feColorMatrix values="0 0 0 0 0   0 0 0 0 0   0 0 0 0 0  0 0 0 0.3 0" type="matrix" in="shadowBlurOuter1" result="shadowMatrixOuter1"></feColorMatrix>
            <feMerge>
                <feMergeNode in="shadowMatrixOuter1"></feMergeNode>
                <feMergeNode in="SourceGraphic"></feMergeNode>
            </feMerge>
        </filter>
        <rect id="path-2" x="0" y="0" width="1176" height="665.261914" rx="4.84708134"></rect>
    </defs>
    <g id="Page-1" stroke="none" stroke-width="1" fill="none" fill-rule="evenodd">
        <g id="Terminal" filter="url(#filter-1)" transform="translate(67.000000, 67.000000)">
            <g id="Rectangle">
                <use fill="#FFFFFF" fill-rule="evenodd" xlink:href="#path-2"></use>
                <rect stroke="#D8D8D8" stroke-width="2.92105263" x="1.46052632" y="1.46052632" width="1173.07895" height="662.340861" rx="4.84708134"></rect>
            </g>
            <path d="M4.84708134,0 L1171.15292,0 C1173.82989,-4.91751247e-16 1176,2.17011223 1176,4.84708134 L1176,27.8707177 L0,27.8707177 L0,4.84708134 C-3.27834165e-16,2.17011223 2.17011223,-3.96427173e-16 4.84708134,-8.8817842e-16 Z" id="Rectangle-2" fill="#D8D8D8"></path>
            <circle id="Oval" fill="#FF5F57" cx="18.176555" cy="13.3294737" r="7.27062201"></circle>
            <circle id="Oval" fill="#FFBD2F" cx="42.4119617" cy="13.3294737" r="7.27062201"></circle>
            <circle id="Oval" fill="#27CA41" cx="66.6473684" cy="13.3294737" r="7.27062201"></circle>
            <rect id="Rectangle-3-Copy-21" fill="#C62129" x="27" y="65" width="591" height="12"></rect>
            <rect id="Rectangle-3-Copy-21" fill="#C62129" x="87" y="125" width="880" height="12"></rect>
            <rect id="Rectangle-3-Copy-21" fill="#C62129" x="87" y="155" width="956" height="12"></rect>
            <rect id="Rectangle-3-Copy-21" fill="#C62129" x="87" y="185" width="367" height="12"></rect>
            <rect id="Rectangle-3-Copy-21" fill="#C62129" x="87" y="241" width="770" height="12"></rect>
            <rect id="Rectangle-3-Copy-21" fill="#C62129" x="87" y="271" width="887" height="12"></rect>
            <rect id="Rectangle-3-Copy-21" fill="#C62129" x="87" y="301" width="155" height="12"></rect>
            <rect id="Rectangle-3-Copy-21" fill="#C62129" x="87" y="356" width="770" height="12"></rect>
            <rect id="Rectangle-3-Copy-21" fill="#C62129" x="87" y="386" width="887" height="12"></rect>
            <rect id="Rectangle-3-Copy-21" fill="#C62129" x="87" y="416" width="155" height="12"></rect>
            <rect id="Rectangle-3-Copy-21" fill="#C62129" x="87" y="473" width="723" height="12"></rect>
            <rect id="Rectangle-3-Copy-21" fill="#C62129" x="87" y="503" width="838" height="12"></rect>
            <rect id="Rectangle-3-Copy-21" fill="#C62129" x="87" y="533" width="718" height="12"></rect>
            <rect id="Rectangle-3-Copy-21" fill="#C62129" x="87" y="562" width="824" height="12"></rect>
        </g>
    </g>
</svg>