<?xml version="1.0" encoding="UTF-8"?>
<svg width="654px" height="666px" viewBox="0 0 654 666" version="1.1" xmlns="http://www.w3.org/2000/svg" xmlns:xlink="http://www.w3.org/1999/xlink">
    <!-- Generator: Sketch 50.2 (55047) - http://www.bohemiancoding.com/sketch -->
    <title>Artboard</title>
    <desc>Created with Sketch.</desc>
    <defs>
        <polygon id="path-1" points="194 0 387.98969 112 387.98969 336 194 448 0.0103095523 336 0.0103095523 112"></polygon>
        <filter x="-26.5%" y="-22.5%" width="153.1%" height="146.0%" filterUnits="objectBoundingBox" id="filter-2">
            <feOffset dx="0" dy="2" in="SourceAlpha" result="shadowOffsetOuter1"></feOffset>
            <feGaussianBlur stdDeviation="34" in="shadowOffsetOuter1" result="shadowBlurOuter1"></feGaussianBlur>
            <feColorMatrix values="0 0 0 0 0   0 0 0 0 0   0 0 0 0 0  0 0 0 0.3 0" type="matrix" in="shadowBlurOuter1"></feColorMatrix>
        </filter>
    </defs>
    <g id="Artboard" stroke="none" stroke-width="1" fill="none" fill-rule="evenodd">
        <g id="token-design" transform="translate(133.000000, 109.000000)">
            <g id="Polygon">
                <use fill="black" fill-opacity="1" filter="url(#filter-2)" xlink:href="#path-1"></use>
                <use fill="#C62129" fill-rule="evenodd" xlink:href="#path-1"></use>
            </g>
            <polygon id="Polygon" fill="#FFFFFF" points="194.5 26 366 125 366 323 194.5 422 23 323 23 125"></polygon>
            <g id="Page-1" transform="translate(95.000000, 129.000000)">
                <polygon id="Fill-1" fill="#010202" points="0 0 0 190 24.6005215 190 24.6005215 60.7678438 99.4784739 137.791908 117.183673 119.576171 80.2414917 81.3359136 80.2506916 81.3222107 0.91078969 0"></polygon>
                <polygon id="Fill-2" fill="#C52128" points="197.093738 0 111.122449 88.8496767 128.922712 107.371445 173.530932 60.9733875 173.530932 190 198 190 198 0"></polygon>
            </g>
        </g>
    </g>
</svg>