<?xml version="1.0" encoding="UTF-8"?>
<svg width="1310px" height="800px" viewBox="0 0 1310 800" version="1.1" xmlns="http://www.w3.org/2000/svg" xmlns:xlink="http://www.w3.org/1999/xlink">
    <!-- Generator: Sketch 49.2 (51160) - http://www.bohemiancoding.com/sketch -->
    <title>whitepaper design</title>
    <desc>Created with Sketch.</desc>
    <defs>
        <linearGradient x1="100%" y1="54.3108523%" x2="0%" y2="54.3108523%" id="linearGradient-1">
            <stop stop-color="#FFFFFF" offset="0%"></stop>
            <stop stop-color="#FFFFFF" offset="63.0219782%"></stop>
            <stop stop-color="#C62129" offset="63.0236629%"></stop>
            <stop stop-color="#C62129" offset="100%"></stop>
        </linearGradient>
        <rect id="path-2" x="0" y="0" width="1176" height="666" rx="8"></rect>
        <filter x="-8.7%" y="-15.3%" width="117.3%" height="130.6%" filterUnits="objectBoundingBox" id="filter-3">
            <feOffset dx="0" dy="0" in="SourceAlpha" result="shadowOffsetOuter1"></feOffset>
            <feGaussianBlur stdDeviation="34" in="shadowOffsetOuter1" result="shadowBlurOuter1"></feGaussianBlur>
            <feColorMatrix values="0 0 0 0 0   0 0 0 0 0   0 0 0 0 0  0 0 0 0.299932065 0" type="matrix" in="shadowBlurOuter1"></feColorMatrix>
        </filter>
    </defs>
    <g id="Page-1" stroke="none" stroke-width="1" fill="none" fill-rule="evenodd">
        <g id="whitepaper-design" transform="translate(67.000000, 67.000000)">
            <g id="Rectangle">
                <use fill="black" fill-opacity="1" filter="url(#filter-3)" xlink:href="#path-2"></use>
                <use fill="url(#linearGradient-1)" fill-rule="evenodd" xlink:href="#path-2"></use>
            </g>
            <rect id="Rectangle-2" fill="#C62129" x="468" y="243" width="11" height="180"></rect>
            <rect id="Rectangle-3" fill="#FFFFFF" x="55" y="45" width="326" height="146"></rect>
            <rect id="Rectangle-3-Copy" fill="#FFFFFF" x="55" y="231" width="69" height="12"></rect>
            <rect id="Rectangle-3-Copy-9" fill="#FFFFFF" x="55" y="351" width="69" height="12"></rect>
            <rect id="Rectangle-3-Copy-3" fill="#FFFFFF" x="55" y="261" width="69" height="12"></rect>
            <rect id="Rectangle-3-Copy-10" fill="#FFFFFF" x="55" y="381" width="69" height="12"></rect>
            <rect id="Rectangle-3-Copy-5" fill="#FFFFFF" x="55" y="291" width="69" height="12"></rect>
            <rect id="Rectangle-3-Copy-11" fill="#FFFFFF" x="55" y="411" width="69" height="12"></rect>
            <rect id="Rectangle-3-Copy-7" fill="#FFFFFF" x="55" y="321" width="69" height="12"></rect>
            <rect id="Rectangle-3-Copy-12" fill="#FFFFFF" x="55" y="441" width="69" height="12"></rect>
            <rect id="Rectangle-3-Copy-17" fill="#FFFFFF" x="55" y="513" width="69" height="12"></rect>
            <rect id="Rectangle-3-Copy-18" fill="#FFFFFF" x="312" y="513" width="69" height="12"></rect>
            <rect id="Rectangle-3-Copy-19" fill="#FFFFFF" x="184" y="513" width="69" height="12"></rect>
            <rect id="Rectangle-3-Copy-2" fill="#FFFFFF" x="144" y="231" width="158" height="12"></rect>
            <rect id="Rectangle-3-Copy-20" fill="#C62129" x="510" y="70" width="158" height="12"></rect>
            <rect id="Rectangle-3-Copy-21" fill="#C62129" x="510" y="112" width="591" height="12"></rect>
            <rect id="Rectangle-3-Copy-29" fill="#C62129" x="668" y="352" width="433" height="12"></rect>
            <rect id="Rectangle-3-Copy-37" fill="#C62129" x="510" y="352" width="141" height="12"></rect>
            <rect id="Rectangle-3-Copy-25" fill="#C62129" x="668" y="232" width="433" height="12"></rect>
            <rect id="Rectangle-3-Copy-38" fill="#C62129" x="510" y="232" width="141" height="12"></rect>
            <rect id="Rectangle-3-Copy-30" fill="#C62129" x="510" y="472" width="591" height="12"></rect>
            <rect id="Rectangle-3-Copy-23" fill="#C62129" x="510" y="172" width="591" height="12"></rect>
            <rect id="Rectangle-3-Copy-31" fill="#C62129" x="668" y="412" width="433" height="12"></rect>
            <rect id="Rectangle-3-Copy-39" fill="#C62129" x="510" y="412" width="141" height="12"></rect>
            <rect id="Rectangle-3-Copy-26" fill="#C62129" x="668" y="292" width="433" height="12"></rect>
            <rect id="Rectangle-3-Copy-40" fill="#C62129" x="510" y="292" width="141" height="12"></rect>
            <rect id="Rectangle-3-Copy-32" fill="#C62129" x="510" y="532" width="591" height="12"></rect>
            <rect id="Rectangle-3-Copy-22" fill="#C62129" x="510" y="142" width="591" height="12"></rect>
            <rect id="Rectangle-3-Copy-33" fill="#C62129" x="668" y="382" width="433" height="12"></rect>
            <rect id="Rectangle-3-Copy-41" fill="#C62129" x="510" y="382" width="141" height="12"></rect>
            <rect id="Rectangle-3-Copy-27" fill="#C62129" x="668" y="262" width="433" height="12"></rect>
            <rect id="Rectangle-3-Copy-42" fill="#C62129" x="510" y="262" width="141" height="12"></rect>
            <rect id="Rectangle-3-Copy-34" fill="#C62129" x="510" y="502" width="591" height="12"></rect>
            <rect id="Rectangle-3-Copy-24" fill="#C62129" x="510" y="202" width="591" height="12"></rect>
            <rect id="Rectangle-3-Copy-35" fill="#C62129" x="510" y="442" width="591" height="12"></rect>
            <rect id="Rectangle-3-Copy-28" fill="#C62129" x="668" y="322" width="433" height="12"></rect>
            <rect id="Rectangle-3-Copy-43" fill="#C62129" x="510" y="322" width="141" height="12"></rect>
            <rect id="Rectangle-3-Copy-36" fill="#C62129" x="510" y="562" width="591" height="12"></rect>
            <rect id="Rectangle-3-Copy-13" fill="#FFFFFF" x="144" y="351" width="237" height="12"></rect>
            <rect id="Rectangle-3-Copy-4" fill="#FFFFFF" x="144" y="261" width="207" height="12"></rect>
            <rect id="Rectangle-3-Copy-14" fill="#FFFFFF" x="144" y="381" width="214" height="12"></rect>
            <rect id="Rectangle-3-Copy-6" fill="#FFFFFF" x="144" y="291" width="226" height="12"></rect>
            <rect id="Rectangle-3-Copy-15" fill="#FFFFFF" x="144" y="411" width="226" height="12"></rect>
            <rect id="Rectangle-3-Copy-8" fill="#FFFFFF" x="144" y="321" width="174" height="12"></rect>
            <rect id="Rectangle-3-Copy-16" fill="#FFFFFF" x="144" y="441" width="237" height="12"></rect>
        </g>
    </g>
</svg>